HIERARCHY
ROOT joint_Root
{
	OFFSET 0.0 0.0 0.0
	CHANNELS 6 Xposition Yposition Zposition Zrotation Xrotation Yrotation 
	JOINT Hips
	{
		OFFSET -0.726466 93.3139 -2.00062
		CHANNELS 6 Xposition Yposition Zposition Zrotation Xrotation Yrotation 
		JOINT Spine
		{
			OFFSET 15.7357 0.0 0.0
			CHANNELS 6 Xposition Yposition Zposition Zrotation Xrotation Yrotation 
			JOINT Chest
			{
				OFFSET 8.98455 -0.406207 0.0
				CHANNELS 6 Xposition Yposition Zposition Zrotation Xrotation Yrotation 
				JOINT Neck
				{
					OFFSET 16.3773 0.0 0.0
					CHANNELS 6 Xposition Yposition Zposition Zrotation Xrotation Yrotation 
					JOINT Head
					{
						OFFSET 6.45672 0.0 0.0
						CHANNELS 6 Xposition Yposition Zposition Zrotation Xrotation Yrotation 
						End Site
						{
							OFFSET 0.0 0.0 0.0
						}
					}
				}
				JOINT Shoulder_L
				{
					OFFSET 12.9942 -0.242716 4.98039
					CHANNELS 6 Xposition Yposition Zposition Zrotation Xrotation Yrotation 
					JOINT UpperArm_L
					{
						OFFSET 5.34809 0.0 0.0
						CHANNELS 6 Xposition Yposition Zposition Zrotation Xrotation Yrotation 
						JOINT LowerArm_L
						{
							OFFSET 24.3286 1.87007e-05 0.0
							CHANNELS 6 Xposition Yposition Zposition Zrotation Xrotation Yrotation 
							JOINT Hand_L
							{
								OFFSET 22.2916 0.0 0.0
								CHANNELS 6 Xposition Yposition Zposition Zrotation Xrotation Yrotation 
								End Site
								{
									OFFSET 0.0 0.0 0.0
								}
							}
						}
					}
				}
				JOINT Shoulder_R
				{
					OFFSET 12.9945 -0.242716 -4.98039
					CHANNELS 6 Xposition Yposition Zposition Zrotation Xrotation Yrotation 
					JOINT UpperArm_R
					{
						OFFSET -5.34813 0.0 0.0
						CHANNELS 6 Xposition Yposition Zposition Zrotation Xrotation Yrotation 
						JOINT LowerArm_R
						{
							OFFSET -24.3289 0.000322201 0.0
							CHANNELS 6 Xposition Yposition Zposition Zrotation Xrotation Yrotation 
							JOINT Hand_R
							{
								OFFSET -22.2915 -0.000108084 0.0
								CHANNELS 6 Xposition Yposition Zposition Zrotation Xrotation Yrotation 
								End Site
								{
									OFFSET 0.0 0.0 0.0
								}
							}
						}
					}
				}
			}
		}
		JOINT UpperLeg_L
		{
			OFFSET -2.19248 -6.46944 0.0
			CHANNELS 6 Xposition Yposition Zposition Zrotation Xrotation Yrotation 
			JOINT LowerLeg_L
			{
				OFFSET 39.0811 0.0 -1.23785e-05
				CHANNELS 6 Xposition Yposition Zposition Zrotation Xrotation Yrotation 
				JOINT Foot_L
				{
					OFFSET 40.9854 0.0 -1.26872e-05
					CHANNELS 6 Xposition Yposition Zposition Zrotation Xrotation Yrotation 
					JOINT Toes_L
					{
						OFFSET 11.7543 0.0 0.0
						CHANNELS 6 Xposition Yposition Zposition Zrotation Xrotation Yrotation 
						End Site
						{
							OFFSET 0.0 0.0 0.0
						}
					}
				}
			}
		}
		JOINT UpperLeg_R
		{
			OFFSET -2.19251 6.46944 0.0
			CHANNELS 6 Xposition Yposition Zposition Zrotation Xrotation Yrotation 
			JOINT LowerLeg_R
			{
				OFFSET -39.0811 -0.00228153 -0.0401928
				CHANNELS 6 Xposition Yposition Zposition Zrotation Xrotation Yrotation 
				JOINT Foot_R
				{
					OFFSET -40.9854 0.0 0.0
					CHANNELS 6 Xposition Yposition Zposition Zrotation Xrotation Yrotation 
					JOINT Toes_R
					{
						OFFSET -11.7543 0.0 0.0
						CHANNELS 6 Xposition Yposition Zposition Zrotation Xrotation Yrotation 
						End Site
						{
							OFFSET 0.0 0.0 0.0
						}
					}
				}
			}
		}
	}
}
MOTION
Frames:	5
Frame Time:	0.0333333
0.000000 0.000000 0.000000 0.000000 0.000000 -0.000000 0.117919 90.212000 531.799000 -85.393600 -0.003477 -177.945000 15.735700 0.000005 -0.000001 85.404000 80.933300 -84.658200 8.984550 -0.406207 -0.000000 10.321300 -1.426760 1.619420 16.377300 -0.000001 -0.000001 7.632520 -2.074030 0.148334 6.456720 -0.000001 -0.000000 3.773190 -1.223840 -0.380498 12.994200 -0.242716 4.980390 -88.705800 -3.432850 -69.327800 5.348090 -0.000007 -0.000001 -54.161500 24.367800 -29.332900 24.328600 0.000019 0.000005 1.719730 2.269190 -37.177200 22.291600 -0.000001 0.000005 6.424150 5.529640 -7.776640 12.994500 -0.242716 -4.980390 89.242100 1.866340 -67.891900 -5.348130 -0.000001 -0.000004 -67.181300 27.345900 -4.777290 -24.328900 0.000322 -0.000009 5.327270 9.405120 -29.714800 -22.291500 -0.000108 -0.000004 4.553330 5.514090 -7.113830 -2.192480 -6.469440 -0.000000 -173.621000 -7.827780 -3.202040 39.081100 -0.000007 -0.000012 -0.254113 0.417923 31.301600 40.985400 -0.000006 -0.000013 -2.182440 -3.530410 -76.235500 11.754300 -0.000000 0.000003 -0.000076 -0.000812 -16.608900 -2.192510 6.469440 -0.000001 178.533000 15.488000 158.060000 -39.081100 -0.002282 -0.040193 0.166037 -0.104252 57.369300 -40.985400 0.000008 0.000006 -0.979648 -3.575730 -58.347100 -11.754300 -0.000006 -0.000006 -0.021526 -0.175599 -23.750400
0.000000 0.000000 0.000000 0.000000 0.000000 -0.000000 -0.039978 90.349100 530.303000 -84.738100 -0.234309 -178.117000 15.735700 0.000005 -0.000001 82.771000 80.766400 -81.750600 8.984550 -0.406207 -0.000000 10.581900 -2.282640 2.251200 16.377300 -0.000001 -0.000001 7.622640 -2.086300 0.065201 6.456720 -0.000001 -0.000000 3.648510 -0.506036 -0.492534 12.994200 -0.242716 4.980390 -88.551800 -3.946000 -69.827400 5.348090 -0.000007 -0.000001 -50.686100 22.035200 -33.251200 24.328600 0.000019 0.000005 1.748750 2.078240 -40.093500 22.291600 -0.000001 0.000005 6.951470 5.533720 -7.959780 12.994500 -0.242716 -4.980390 89.319600 1.619770 -67.210700 -5.348130 -0.000001 -0.000004 -67.085700 26.759100 -2.822290 -24.328900 0.000322 -0.000009 5.455300 9.659840 -29.651100 -22.291500 -0.000108 -0.000004 4.527590 5.519660 -7.349150 -2.192480 -6.469440 -0.000000 -172.918000 -7.685730 -1.326650 39.081100 -0.000007 -0.000012 -0.241501 0.429178 29.367100 40.985400 -0.000006 -0.000013 -2.198140 -3.365840 -76.364300 11.754300 -0.000000 0.000003 -0.000094 -0.000975 -16.615000 -2.192510 6.469440 -0.000001 -179.236000 16.764200 155.389000 -39.081100 -0.002282 -0.040193 0.121349 -0.092768 51.852200 -40.985400 0.000008 0.000006 -0.822963 -4.292520 -58.359700 -11.754300 -0.000006 -0.000006 -0.022334 -0.179889 -23.927300
0.000000 0.000000 0.000000 0.000000 0.000000 -0.000000 -0.199735 90.257300 528.771000 -84.316300 -0.173147 -178.359000 15.735700 0.000005 -0.000001 80.653000 80.494600 -79.453400 8.984550 -0.406207 -0.000000 11.036800 -3.030350 2.691240 16.377300 -0.000001 -0.000001 7.591810 -1.914630 0.008714 6.456720 -0.000001 -0.000000 3.150370 0.272234 -0.714511 12.994200 -0.242716 4.980390 -88.413500 -4.401520 -70.155300 5.348090 -0.000007 -0.000001 -47.514800 19.374800 -36.166500 24.328600 0.000019 0.000005 1.699620 1.800890 -43.359000 22.291600 -0.000001 0.000005 7.439710 5.541240 -8.301880 12.994500 -0.242716 -4.980390 89.330200 1.544970 -66.557100 -5.348130 -0.000001 -0.000004 -66.496500 26.149900 -1.531090 -24.328900 0.000322 -0.000009 5.413820 9.440980 -30.022700 -22.291500 -0.000108 -0.000004 4.899430 5.516420 -7.210130 -2.192480 -6.469440 -0.000000 -172.501000 -7.617670 0.145379 39.081100 -0.000007 -0.000012 -0.238674 0.444122 28.254200 40.985400 -0.000006 -0.000013 -2.347450 -3.528400 -76.964500 11.754300 -0.000000 0.000003 -0.000084 -0.000887 -16.611700 -2.192510 6.469440 -0.000001 -177.136000 17.834400 153.082000 -39.081100 -0.002282 -0.040193 0.078463 -0.074855 45.131300 -40.985400 0.000008 0.000006 -1.408990 -4.372890 -58.025400 -11.754300 -0.000006 -0.000006 -0.020972 -0.172615 -23.627300
0.000000 0.000000 0.000000 0.000000 0.000000 -0.000000 -0.310393 90.002900 527.125000 -84.159600 -0.031122 -178.843000 15.735700 0.000005 -0.000001 78.752600 80.262400 -77.441400 8.984550 -0.406207 -0.000000 11.397200 -3.727060 2.994010 16.377300 -0.000001 -0.000001 7.478940 -1.736120 -0.117215 6.456720 -0.000001 -0.000000 2.782570 1.269400 -1.029270 12.994200 -0.242716 4.980390 -88.334200 -4.622880 -70.158600 5.348090 -0.000007 -0.000001 -44.451700 16.823700 -38.362900 24.328600 0.000019 0.000005 1.500150 1.423500 -46.516400 22.291600 -0.000001 0.000005 7.847070 5.546940 -8.561570 12.994500 -0.242716 -4.980390 89.364300 1.412300 -65.763500 -5.348130 -0.000001 -0.000004 -65.752300 25.451800 -0.819533 -24.328900 0.000322 -0.000009 5.632230 9.608940 -30.579300 -22.291500 -0.000108 -0.000004 5.309540 5.513170 -7.073570 -2.192480 -6.469440 -0.000000 -172.241000 -7.975930 1.331990 39.081100 -0.000007 -0.000012 -0.252286 0.484642 27.500200 40.985400 -0.000006 -0.000013 -2.447490 -3.297410 -77.835000 11.754300 -0.000000 0.000003 -0.000113 -0.001146 -16.621400 -2.192510 6.469440 -0.000001 -175.152000 18.525600 151.150000 -39.081100 -0.002282 -0.040193 0.042917 -0.051795 37.422000 -40.985400 0.000008 0.000006 -1.579140 -3.187670 -57.319600 -11.754300 -0.000006 -0.000006 -0.019675 -0.165485 -23.333600
0.000000 0.000000 0.000000 0.000000 0.000000 -0.000000 -0.363232 89.568200 525.280000 -84.320900 0.002685 -179.328000 15.735700 0.000005 -0.000001 76.927200 80.039900 -75.605600 8.984550 -0.406207 -0.000000 11.716200 -4.422840 3.097370 16.377300 -0.000001 -0.000001 7.544790 -1.526700 -0.162169 6.456720 -0.000001 -0.000000 2.336150 2.080080 -1.268750 12.994200 -0.242716 4.980390 -88.214300 -4.959540 -70.169100 5.348090 -0.000007 -0.000001 -41.900000 14.705900 -39.668900 24.328600 0.000019 0.000005 1.228900 1.052980 -49.418900 22.291600 -0.000001 0.000005 8.923680 5.558120 -9.094360 12.994500 -0.242716 -4.980390 89.420100 1.238300 -64.904100 -5.348130 -0.000001 -0.000004 -65.099900 24.363400 -0.255340 -24.328900 0.000322 -0.000009 5.710680 9.429320 -31.404800 -22.291500 -0.000108 -0.000004 5.543700 5.512220 -7.032830 -2.192480 -6.469440 -0.000000 -172.238000 -8.239520 2.511050 39.081100 -0.000007 -0.000012 -0.274149 0.536876 27.051100 40.985400 -0.000006 -0.000013 -2.622940 -3.050570 -79.005500 11.754300 -0.000000 0.000003 -0.000134 -0.001321 -16.627900 -2.192510 6.469440 -0.000001 -173.504000 18.990300 149.791000 -39.081100 -0.002282 -0.040193 0.018339 -0.026755 29.334100 -40.985400 0.000008 0.000006 -1.907900 -1.109170 -56.597600 -11.754300 -0.000006 -0.000006 -0.020099 -0.167840 -23.430500
